{"title":"Ingen.Bor.I.Skogen.2010.DVDRiP.m4v.AAC.SWESUB-Zen_Bud","uid":5949086,"size":1043291338,"categoryP":"video","categoryS":"movies","magnet":"?xt=urn:btih:85401b387abe853a99ec51cae9c34c14327278ba&amp;dn=Ingen.Bor.I.Skogen.2010.DVDRiP.m4v.AAC.SWESUB-Zen_Bud&amp;tr=udp%3A%2F%2Ftracker.openbittorrent.com%3A80&amp;tr=udp%3A%2F%2Fopen.demonii.com%3A1337&amp;tr=udp%3A%2F%2Ftracker.coppersurfer.tk%3A6969&amp;tr=udp%3A%2F%2Fexodus.desync.com%3A6969","seeders":4,"leechers":0,"uploader":"Zen_Bud","files":-1,"time":1289467773,"description":"******* Ingen.Bor.I.Skogen.2010.DVDRiP.m4v.AAC.SWESUB-Zen_Bud ********\n\nFormat                           : MPEG-4\nCodec ID                         : mp42\nFile size                        : 995 MiB\nDuration                         : 2h 20mn\nOverall bit rate                 : 987 Kbps\nWriting application              : HandBrake svn3661 2010110801\nXtra                             : WM/MediaClassPrimaryID\n\nVideo\n\nFormat                           : AVC\nBit rate                         : 817 Kbps\nWidth                            : 720 pixels\nHeight                           : 576 pixels\nDisplay aspect ratio             : 16:9\nStream size                      : 823 MiB (83%)\nWriting library                  : x264 core 107\n\nAudio\n\nFormat                           : AAC\nDuration                         : 2h 20mn\nBit rate                         : 160 Kbps\nMaximum bit rate                 : 270 Kbps\nChannel(s)                       : 2 channels\nChannel positions                : Front: L R\nSampling rate                    : 48.0 KHz\nStream size                      : 161 MiB (16%)\nLanguage                         : Swedish\n\n\nText #1\nLanguage                         : Swedish\n\n &lt;a href=&quot;\nhttp://sv.wikipedia.org/wiki/Ingen_bor_i_skogen&quot; rel=&quot;nofollow&quot; target=&quot;_NEW&quot;&gt;\nhttp://sv.wikipedia.org/wiki/Ingen_bor_i_skogen&lt;/a&gt;\n\n\n","torrent":{"xt":"urn:btih:85401b387abe853a99ec51cae9c34c14327278ba","amp;dn":"Ingen.Bor.I.Skogen.2010.DVDRiP.m4v.AAC.SWESUB-Zen_Bud","amp;tr":["udp%3A%2F%2Ftracker.openbittorrent.com%3A80","udp%3A%2F%2Fopen.demonii.com%3A1337","udp%3A%2F%2Ftracker.coppersurfer.tk%3A6969","udp%3A%2F%2Fexodus.desync.com%3A6969"],"infoHash":"85401b387abe853a99ec51cae9c34c14327278ba","infoHashBuffer":{"type":"Buffer","data":[133,64,27,56,122,190,133,58,153,236,81,202,233,195,76,20,50,114,120,186]},"announce":[],"urlList":[]}}